<svg xmlns="http://www.w3.org/2000/svg" xmlns:xlink="http://www.w3.org/1999/xlink" version="1.1" width="256" height="256" viewBox="0 0 256 256" xml:space="preserve">
<g style="stroke: none; stroke-width: 0; stroke-dasharray: none; stroke-linecap: butt; stroke-linejoin: miter; stroke-miterlimit: 10; fill: none; fill-rule: nonzero; opacity: 1;" transform="translate(1.4065934065934016 1.4065934065934016) scale(2.81 2.81)">
	<path d="M 81.782 19.278 h -2.016 V 12.69 v -2.673 V 5.86 c 0 -3.237 -2.624 -5.86 -5.86 -5.86 H 16.094 c -3.237 0 -5.86 2.624 -5.86 5.86 v 4.157 v 2.673 v 6.588 H 8.218 c -1.904 0 -3.448 1.544 -3.448 3.448 v 13.197 c 0 1.904 1.544 3.448 3.448 3.448 h 2.016 v 36.143 c 0 1.381 1.12 2.501 2.501 2.501 h 4.219 v 7.315 c 0 2.58 2.091 4.671 4.671 4.671 h 5.993 c 2.58 0 4.671 -2.091 4.671 -4.671 v -7.315 h 25.425 v 7.315 c 0 2.58 2.091 4.671 4.671 4.671 h 5.993 c 2.58 0 4.671 -2.091 4.671 -4.671 v -7.315 h 4.219 c 1.381 0 2.501 -1.12 2.501 -2.501 V 39.371 h 2.016 c 1.904 0 3.448 -1.544 3.448 -3.448 V 22.726 C 85.23 20.822 83.686 19.278 81.782 19.278 z M 25.028 8.625 c 0 -1.807 1.465 -3.272 3.272 -3.272 h 33.4 c 1.807 0 3.272 1.465 3.272 3.272 v 0 c 0 1.807 -1.465 3.272 -3.272 3.272 H 28.3 C 26.493 11.897 25.028 10.432 25.028 8.625 L 25.028 8.625 z M 24.07 69.554 c -3.066 0 -5.552 -2.486 -5.552 -5.552 s 2.486 -5.552 5.552 -5.552 s 5.552 2.486 5.552 5.552 S 27.136 69.554 24.07 69.554 z M 65.93 69.554 c -3.066 0 -5.552 -2.486 -5.552 -5.552 s 2.486 -5.552 5.552 -5.552 s 5.552 2.486 5.552 5.552 S 68.997 69.554 65.93 69.554 z M 71.835 48.9 c 0 1.478 -1.198 2.677 -2.677 2.677 H 20.842 c -1.478 0 -2.677 -1.198 -2.677 -2.677 V 19.84 c 0 -1.478 1.198 -2.677 2.677 -2.677 h 48.316 c 1.478 0 2.677 1.198 2.677 2.677 V 48.9 z" style="stroke: none; stroke-width: 1; stroke-dasharray: none; stroke-linecap: butt; stroke-linejoin: miter; stroke-miterlimit: 10; fill: rgb(0,0,0); fill-rule: nonzero; opacity: 1;" transform=" matrix(1 0 0 1 0 0) " stroke-linecap="round"/>
</g>
</svg>