<svg xmlns="http://www.w3.org/2000/svg" xmlns:xlink="http://www.w3.org/1999/xlink" version="1.1" width="256" height="256" viewBox="0 0 256 256" xml:space="preserve">
<g style="stroke: none; stroke-width: 0; stroke-dasharray: none; stroke-linecap: butt; stroke-linejoin: miter; stroke-miterlimit: 10; fill: none; fill-rule: nonzero; opacity: 1;" transform="translate(1.4065934065934016 1.4065934065934016) scale(2.81 2.81)">
	<path d="M 77.673 5.21 H 12.327 C 5.53 5.21 0 10.74 0 17.537 v 36.594 c 0 6.797 5.53 12.327 12.327 12.327 h 5.509 v 15.419 c 0 1.182 0.674 2.205 1.759 2.672 c 0.379 0.164 0.774 0.243 1.163 0.243 c 0.723 0 1.428 -0.275 1.985 -0.803 l 18.512 -17.531 h 36.417 C 84.47 66.458 90 60.928 90 54.131 V 17.537 C 90 10.74 84.47 5.21 77.673 5.21 z M 45.447 54.166 c -0.141 0.07 -0.294 0.105 -0.447 0.105 s -0.307 -0.035 -0.447 -0.105 c -4.446 -2.223 -8.237 -4.886 -11.269 -7.915 c -0.735 -0.735 -1.435 -1.502 -2.079 -2.28 c -0.806 -0.975 -1.539 -1.984 -2.18 -3.001 c -4.468 -7.09 -4.594 -15.079 -0.307 -19.425 c 3.772 -3.824 9.826 -3.85 16.282 -0.097 c 5.414 -3.154 10.478 -3.665 14.307 -1.437 c 3.354 1.952 5.269 5.885 5.121 10.521 C 64.207 37.479 59.105 47.337 45.447 54.166 z" style="stroke: none; stroke-width: 1; stroke-dasharray: none; stroke-linecap: butt; stroke-linejoin: miter; stroke-miterlimit: 10; fill: rgb(0,0,0); fill-rule: nonzero; opacity: 1;" transform=" matrix(1 0 0 1 0 0) " stroke-linecap="round"/>
</g>
</svg>